<svg xmlns="http://www.w3.org/2000/svg" xmlns:xlink="http://www.w3.org/1999/xlink" viewBox="0 0 139.76 202.78"><defs><style>.cls-1{fill:url(#linear-gradient);}.cls-2{fill:url(#linear-gradient-2);}.cls-11,.cls-3,.cls-4,.cls-5,.cls-6,.cls-9{fill:none;stroke-linecap:round;stroke-miterlimit:10;}.cls-3{stroke:url(#linear-gradient-3);}.cls-4{stroke:url(#linear-gradient-4);}.cls-5{stroke:url(#linear-gradient-5);}.cls-6{stroke:url(#linear-gradient-6);}.cls-7{fill:#fff;}.cls-8{fill:url(#radial-gradient);}.cls-9{stroke:url(#linear-gradient-7);}.cls-10{fill:url(#radial-gradient-2);}.cls-11{stroke:url(#linear-gradient-8);}.cls-12{fill:url(#linear-gradient-9);}.cls-13{fill:url(#linear-gradient-10);}</style><linearGradient id="linear-gradient" x1="15.53" y1="134.48" x2="116.22" y2="134.48" gradientUnits="userSpaceOnUse"><stop offset="0" stop-color="#ffdeaa"/><stop offset="0.75" stop-color="#cca954"/><stop offset="0.8" stop-color="#d1ae5c"/><stop offset="0.87" stop-color="#debc72"/><stop offset="0.96" stop-color="#f4d297"/><stop offset="1" stop-color="#ffdeaa"/></linearGradient><linearGradient id="linear-gradient-2" x1="65.6" y1="179.54" x2="65.6" y2="168.66" gradientUnits="userSpaceOnUse"><stop offset="0" stop-color="#ff6a40"/><stop offset="1" stop-color="#d16222"/></linearGradient><linearGradient id="linear-gradient-3" x1="52.35" y1="153.83" x2="56.75" y2="149.44" gradientUnits="userSpaceOnUse"><stop offset="0" stop-color="#969696"/><stop offset="1" stop-color="#242728"/></linearGradient><linearGradient id="linear-gradient-4" x1="73.03" y1="154.74" x2="79.29" y2="148.48" xlink:href="#linear-gradient-3"/><linearGradient id="linear-gradient-5" x1="69.87" y1="156.32" x2="73.35" y2="152.84" xlink:href="#linear-gradient-3"/><linearGradient id="linear-gradient-6" x1="57.17" y1="155.88" x2="59.77" y2="153.28" xlink:href="#linear-gradient-3"/><radialGradient id="radial-gradient" cx="90.8" cy="119.37" r="3.81" gradientUnits="userSpaceOnUse"><stop offset="0" stop-color="#d16222"/><stop offset="0.36" stop-color="#c17024"/><stop offset="1" stop-color="#20ff39"/></radialGradient><linearGradient id="linear-gradient-7" x1="83.8" y1="127.28" x2="97.18" y2="113.9" xlink:href="#linear-gradient-3"/><radialGradient id="radial-gradient-2" cx="42.95" cy="119.37" r="3.81" xlink:href="#radial-gradient"/><linearGradient id="linear-gradient-8" x1="37.41" y1="126.07" x2="48.37" y2="115.11" gradientUnits="userSpaceOnUse"><stop offset="0" stop-color="#242728"/><stop offset="1" stop-color="#969696"/></linearGradient><linearGradient id="linear-gradient-9" x1="80.22" y1="65.51" x2="80.22" y2="27.96" gradientUnits="userSpaceOnUse"><stop offset="0" stop-color="#ff3c05"/><stop offset="1" stop-color="#0022e9"/></linearGradient><linearGradient id="linear-gradient-10" x1="69.88" y1="125.37" x2="69.88" y2="0" xlink:href="#linear-gradient-9"/></defs><title>FaceTwo</title><g id="Layer_2" data-name="Layer 2"><g id="Logo_Color_all" data-name="Logo Color all"><g id="FaceTwo"><path class="cls-1" d="M67.53,202.69c3.48,0,2.48,1.16,12.92-4.64,10.13-5.63,25.5-18.54,32.45-55.64s1.16-35.93-1.15-47.53S109,70.38,99,67.06c-3.47-1.16-24.34-.86-32.45-.86H65.21c-8.11,0-29-.3-32.46.86C22.8,70.38,22.32,83.29,20,94.88s-8.11,10.44-1.16,47.53,22.33,50,32.46,55.64c10.43,5.8,10.43,4.64,12.75,4.64Z"/><path class="cls-2" d="M66,169.07c5-1.38,10.33,1.1,11.74,2a14.21,14.21,0,0,0,5.08,1.51A.24.24,0,0,1,83,173c-1.44,1.34-6.39,5.71-10.9,6.54a13.15,13.15,0,0,1-3.46-.33c-.7-.07-2.1.12-2.81.12s-2.41-.2-3.21-.12a13.07,13.07,0,0,1-3.45.33c-4.52-.83-9.47-5.2-10.9-6.54a.23.23,0,0,1,.15-.41A14.2,14.2,0,0,0,53.48,171c1.4-.86,6.69-3.15,11.73-2A2,2,0,0,0,66,169.07Z"/><path class="cls-3" d="M53.64,147s-3.56,6.9,2.27,8.74"/><path class="cls-4" d="M76.83,146.72s5.17,7.76-2.16,8.95"/><path class="cls-5" d="M69.28,155s4.85-3,4.31-.54"/><path class="cls-6" d="M60.8,155s-4.85-3-4.31-.54"/><path class="cls-7" d="M79.24,121.79c1.39-1.84,9.54-11.43,22.49-2.63a.26.26,0,0,1,0,.43,18.3,18.3,0,0,1-14.19,3.21,44,44,0,0,0-8.17-.73A.17.17,0,0,1,79.24,121.79Z"/><circle class="cls-8" cx="90.8" cy="119.37" r="3.81"/><circle cx="90.8" cy="119.37" r="1.48"/><path class="cls-9" d="M79.24,121.79c1.39-1.84,9.54-11.43,22.49-2.63a.26.26,0,0,1,0,.43,18.3,18.3,0,0,1-14.19,3.21,44,44,0,0,0-8.17-.73A.17.17,0,0,1,79.24,121.79Z"/><path class="cls-7" d="M54.14,121.79c-1.39-1.84-9.54-11.43-22.49-2.63a.26.26,0,0,0,0,.43,18.3,18.3,0,0,0,14.19,3.21,44,44,0,0,1,8.17-.73A.17.17,0,0,0,54.14,121.79Z"/><circle class="cls-10" cx="42.95" cy="119.37" r="3.81"/><circle cx="42.95" cy="119.37" r="1.48"/><path class="cls-11" d="M54.14,121.79c-1.39-1.84-9.54-11.43-22.49-2.63a.26.26,0,0,0,0,.43,18.3,18.3,0,0,0,14.19,3.21,44,44,0,0,1,8.17-.73A.17.17,0,0,0,54.14,121.79Z"/><path class="cls-12" d="M64.1,38.94c8.14-19.94,57.3,4.33,3.11,26.57,0,0,27.54-5.47,29-19C98.28,27.93,70.75,19.74,64.1,38.94Z"/><path class="cls-13" d="M80.42,66.67C98.1,60.81,101.65,53,101.11,44c-.38-6.46-7.11-16.5-19.73-18.12S60.59,36.29,64.34,41c-1.48-5.36,11.13-8.21,17.36-4.8,13.59,7.44-5.44,23.48-20.65,30.6-9.61,0-25.37,0-28.18.91C22.91,71,23,83.4,20.73,95c-1.88,9.4-6.66,10.5-4.44,30.37,0,0-5.26-8.71-4.18-15.82S4.13,99.2,3.7,90.14-2.55,75.47,1.33,67.71s3.23-15.1,2.59-16.18S2,38,9.09,38A13.16,13.16,0,0,0,21,31.05C22,28.89,25.27,19,33.89,21.34s2.38-2.16,5.83-4.53c0,0,.86-3.67,3.66-4.1S50.28,7.32,54,7.11s16.18-10.36,19.63-6,3,5.82,5.6,5.6S90.83,11,92.77,15.3s5.39-.65,11.86,2.16,11,9.27,8,13.8-2.37,7.33,1.08,5.82,4.31-6.47,3-8.84S123,22.63,125.34,30s-4.66,15.25-3.89,15.31c2.81.21,8.85,3.23,10.36-.43s9.05.21,4.74,6.25-1.72,8.2-1.72,8.2,2.8-3.45,4.52,2.59-2.15,6-9.27,17.68-13.82,38.65-13.82,38.65c.56-13.2-3.37-14.74-5-22.88-2.32-11.59-2.46-24.51-12.42-27.83C97.22,67,86.57,66.75,80.42,66.67Z"/></g></g></g></svg>