<svg xmlns="http://www.w3.org/2000/svg" xmlns:xlink="http://www.w3.org/1999/xlink" viewBox="0 0 110.4 171.14"><defs><style>.cls-1{fill:url(#linear-gradient);}.cls-2{fill:url(#linear-gradient-2);}.cls-3{fill:#fff;}.cls-4{fill:url(#radial-gradient);}.cls-10,.cls-11,.cls-12,.cls-13,.cls-5,.cls-6,.cls-8,.cls-9{fill:none;stroke-linecap:round;stroke-miterlimit:10;}.cls-5{stroke:url(#linear-gradient-3);}.cls-6{stroke:url(#linear-gradient-4);}.cls-7{fill:url(#radial-gradient-2);}.cls-8{stroke:url(#linear-gradient-5);}.cls-9{stroke:url(#linear-gradient-6);}.cls-10{stroke:url(#linear-gradient-7);}.cls-11{stroke:url(#linear-gradient-8);}.cls-12{stroke:url(#linear-gradient-9);}.cls-13{stroke:url(#linear-gradient-10);}.cls-14{fill:url(#linear-gradient-11);}</style><linearGradient id="linear-gradient" x1="7.25" y1="98.75" x2="103.48" y2="98.75" gradientUnits="userSpaceOnUse"><stop offset="0" stop-color="#ab866d"/><stop offset="0.75" stop-color="#946850"/><stop offset="1" stop-color="#ab7b5b"/></linearGradient><linearGradient id="linear-gradient-2" x1="54.9" y1="144.2" x2="54.9" y2="131.12" gradientUnits="userSpaceOnUse"><stop offset="0.05" stop-color="#82554a"/><stop offset="0.27" stop-color="#a0585a"/><stop offset="0.69" stop-color="#82554a"/></linearGradient><radialGradient id="radial-gradient" cx="77.73" cy="85.49" r="3.53" gradientUnits="userSpaceOnUse"><stop offset="0.42" stop-color="#4f291f"/><stop offset="1" stop-color="#170c0b"/></radialGradient><linearGradient id="linear-gradient-3" x1="66.16" y1="85.4" x2="89.99" y2="85.4" gradientUnits="userSpaceOnUse"><stop offset="0" stop-color="#969696"/><stop offset="0.3" stop-color="#5c352d"/><stop offset="1" stop-color="#572d24"/></linearGradient><linearGradient id="linear-gradient-4" x1="67.64" y1="82.57" x2="90.91" y2="82.57" xlink:href="#linear-gradient-3"/><radialGradient id="radial-gradient-2" cx="32.89" cy="85.49" r="3.53" xlink:href="#radial-gradient"/><linearGradient id="linear-gradient-5" x1="19.93" y1="85.4" x2="43.76" y2="85.4" gradientUnits="userSpaceOnUse"><stop offset="0" stop-color="#572d24"/><stop offset="0.7" stop-color="#5c352d"/><stop offset="1" stop-color="#969696"/></linearGradient><linearGradient id="linear-gradient-6" x1="19.01" y1="82.57" x2="42.28" y2="82.57" xlink:href="#linear-gradient-5"/><linearGradient id="linear-gradient-7" x1="45.74" y1="121.32" x2="45.74" y2="109.95" gradientUnits="userSpaceOnUse"><stop offset="0" stop-color="#8c6239"/><stop offset="1" stop-color="#42210b"/></linearGradient><linearGradient id="linear-gradient-8" x1="48.72" y1="118.59" x2="48.72" y2="115.35" xlink:href="#linear-gradient-7"/><linearGradient id="linear-gradient-9" x1="64.52" y1="121.32" x2="64.52" y2="109.95" xlink:href="#linear-gradient-7"/><linearGradient id="linear-gradient-10" x1="61.54" y1="118.59" x2="61.54" y2="115.35" xlink:href="#linear-gradient-7"/><linearGradient id="linear-gradient-11" x1="55.2" y1="99.66" x2="55.2" gradientUnits="userSpaceOnUse"><stop offset="0" stop-color="#24e900"/><stop offset="0.71" stop-color="#69db5b"/></linearGradient></defs><title>FaceThree</title><g id="Layer_2" data-name="Layer 2"><g id="Logo_Color_all" data-name="Logo Color all"><g id="FaceThree"><path class="cls-1" d="M56.11,171.1s9,.57,13.17-2.87c2.25-1.66,13.22-4.82,21.41-24.83s8.45-18.24,11-41.65c.86-12.73,1-34.3,1.61-38.54s0-35-12.1-32.35C84.48,32.46,73,29,71,27.42s-5.14-1.49-8.88,1.26c-1.82,1.83-6.58,1.83-6.58,1.83h-1s-4.07,0-5.89-1.83c-3.75-2.75-6.85-2.87-8.89-1.26s-13.48,5-20.22,3.44C7.42,28.22,6.78,59,7.42,63.21S8.17,89,9,101.75c2.56,23.41,2.83,21.63,11,41.65s19.16,23.17,21.41,24.83c4.17,3.44,13.16,2.87,13.16,2.87Z"/><path class="cls-2" d="M55.37,143.88c2.31,1,5.89-.68,9.21-3.09S71,138.66,72,138.18s1.71-1.84.11-2-7.81-5-10.49-5-4.61,0-5.24.48a10.19,10.19,0,0,1-1,.71,1,1,0,0,1-1,0l-1-.71c-.63-.49-2.57-.48-5.24-.48s-8.89,4.83-10.49,5-.86,1.54.1,2,4.07.19,7.39,2.61,6.92,4.16,9.2,3.09A1,1,0,0,1,55.37,143.88Z"/><path class="cls-3" d="M66.82,87.41c-.85-1.17,1.82-2.69,2.68-3s4.89-2,5.57-2.12c1.37-.31,6.63-1,12.63,3.39,1.17.74,2.51,1.32,1.33,1.72s-4.6-.4-6.9.74-7.22.75-9.63-.23a5.41,5.41,0,0,0-3.91-.34C68,87.82,67.1,87.79,66.82,87.41Z"/><circle class="cls-4" cx="77.73" cy="85.49" r="3.53"/><circle cx="77.73" cy="85.49" r="1.08"/><path class="cls-5" d="M66.82,87.41c-.85-1.17,1.82-2.69,2.68-3s4.89-2,5.57-2.12c1.37-.31,6.63-1,12.63,3.39,1.17.74,2.51,1.32,1.33,1.72s-4.6-.4-6.9.74-7.22.75-9.63-.23a5.41,5.41,0,0,0-3.91-.34C68,87.82,67.1,87.79,66.82,87.41Z"/><path class="cls-6" d="M68.14,82.75s9.47-7.52,22.27,2.37"/><path class="cls-3" d="M43.1,87.41c.85-1.17-1.82-2.69-2.68-3s-4.89-2-5.57-2.12c-1.37-.31-6.63-1-12.63,3.39-1.17.74-2.51,1.32-1.33,1.72s4.6-.4,6.9.74,7.22.75,9.63-.23a5.41,5.41,0,0,1,3.91-.34C42,87.82,42.82,87.79,43.1,87.41Z"/><circle class="cls-7" cx="32.89" cy="85.49" r="3.53"/><circle cx="32.89" cy="85.49" r="1.08"/><path class="cls-8" d="M43.1,87.41c.85-1.17-1.82-2.69-2.68-3s-4.89-2-5.57-2.12c-1.37-.31-6.63-1-12.63,3.39-1.17.74-2.51,1.32-1.33,1.72s4.6-.4,6.9.74,7.22.75,9.63-.23a5.41,5.41,0,0,1,3.91-.34C42,87.82,42.82,87.79,43.1,87.41Z"/><path class="cls-9" d="M41.78,82.75s-9.47-7.52-22.27,2.37"/><path class="cls-10" d="M48.84,120.68s-6.55,1.4-6.19-4.76c.32-5.59,2.18-5.71,2.71-5.36"/><path class="cls-11" d="M51.41,117.81s-2.67-2.18-4.28-2a1.13,1.13,0,0,0-.75,2,4.2,4.2,0,0,0,2,.23"/><path class="cls-12" d="M61.42,120.68s6.55,1.4,6.19-4.76c-.32-5.59-2.18-5.71-2.71-5.36"/><path class="cls-13" d="M58.85,117.81s2.68-2.18,4.28-2a1.13,1.13,0,0,1,.75,2,4.2,4.2,0,0,1-2,.23"/><path class="cls-14" d="M8.78,99.63s0,.05-.06,0C7.91,97.51,1,78.81.14,69.52-.71,59.65,2.26,27.6,10.2,19.27,20.05,9,38.89,0,55.16,0s41.2,13.61,44.1,18.81c7.27,13.08,13.48,31.67,10.27,49.1a187,187,0,0,1-7.53,29,.07.07,0,0,1-.14,0c.82-12.68.82-29.51,1.46-33.7s0-35-12.1-32.35C84.48,32.46,73,29,71,27.42s-5.14-1.49-8.88,1.26c-1.82,1.83-6.58,1.83-6.58,1.83h-1s-4.07,0-5.89-1.83c-3.75-2.75-6.85-2.87-8.89-1.26s-13.48,5-20.22,3.44C7.42,28.22,6.78,59,7.42,63.21S7.94,86.89,8.78,99.63Z"/></g></g></g></svg>