<svg xmlns="http://www.w3.org/2000/svg" xmlns:xlink="http://www.w3.org/1999/xlink" viewBox="0 0 145.23 163.42"><defs><style>.cls-1{fill:url(#linear-gradient);}.cls-2{fill:url(#linear-gradient-2);}.cls-3,.cls-4,.cls-7,.cls-9{fill:none;stroke-linecap:round;stroke-miterlimit:10;}.cls-3{stroke:url(#linear-gradient-3);}.cls-4{stroke:url(#linear-gradient-4);}.cls-5{fill:#fff;}.cls-6{fill:url(#radial-gradient);}.cls-7{stroke:url(#linear-gradient-5);}.cls-8{fill:url(#radial-gradient-2);}.cls-9{stroke:url(#linear-gradient-6);}.cls-10{fill:url(#linear-gradient-7);}</style><linearGradient id="linear-gradient" x1="19.24" y1="109.78" x2="128.35" y2="109.78" gradientUnits="userSpaceOnUse"><stop offset="0" stop-color="#fdffd1"/><stop offset="0.75" stop-color="#d1a600"/><stop offset="0.78" stop-color="#d2a805"/><stop offset="0.81" stop-color="#d5af14"/><stop offset="0.85" stop-color="#dab92d"/><stop offset="0.89" stop-color="#e2c84f"/><stop offset="0.93" stop-color="#ebdb7c"/><stop offset="0.98" stop-color="#f6f1b1"/><stop offset="1" stop-color="#fdffd1"/></linearGradient><linearGradient id="linear-gradient-2" x1="74.36" y1="140.57" x2="74.36" y2="126.34" gradientUnits="userSpaceOnUse"><stop offset="0" stop-color="#ff4cfc"/><stop offset="0.28" stop-color="#fe4afc"/><stop offset="0.38" stop-color="#f943fd"/><stop offset="0.45" stop-color="#f038fd"/><stop offset="0.51" stop-color="#e427fe"/><stop offset="0.54" stop-color="#dc1bff"/></linearGradient><linearGradient id="linear-gradient-3" x1="66.74" y1="118.69" x2="66.74" y2="106.66" gradientUnits="userSpaceOnUse"><stop offset="0" stop-color="#969696"/><stop offset="1" stop-color="#a67c52"/></linearGradient><linearGradient id="linear-gradient-4" x1="82.49" y1="118.69" x2="82.49" y2="106.66" xlink:href="#linear-gradient-3"/><radialGradient id="radial-gradient" cx="101.41" cy="84.79" r="4.81" gradientUnits="userSpaceOnUse"><stop offset="0" stop-color="#969696"/><stop offset="0.4" stop-color="#989694"/><stop offset="1" stop-color="#c69c6d"/></radialGradient><linearGradient id="linear-gradient-5" x1="86.79" y1="84.96" x2="114.79" y2="84.96" gradientUnits="userSpaceOnUse"><stop offset="0" stop-color="#969696"/><stop offset="1" stop-color="#242728"/></linearGradient><radialGradient id="radial-gradient-2" cx="46.58" cy="84.79" r="4.81" xlink:href="#radial-gradient"/><linearGradient id="linear-gradient-6" x1="60.79" y1="84.96" x2="32.79" y2="84.96" xlink:href="#linear-gradient-5"/><linearGradient id="linear-gradient-7" y1="78.4" x2="145.23" y2="78.4" gradientUnits="userSpaceOnUse"><stop offset="0" stop-color="#dc1bff"/><stop offset="1" stop-color="#ff4cfc"/></linearGradient></defs><title>FaceOne</title><g id="Layer_2" data-name="Layer 2"><g id="Logo_Color_all" data-name="Logo Color all"><g id="FaceOne"><path class="cls-1" d="M19.41,73.18A8.11,8.11,0,0,0,19.24,75c.1,7.17,1.43,55.51,19.12,70.82C57.48,162.32,63.11,163.42,71,163.42h5.63c7.87,0,13.49-1.1,32.62-17.65C127.47,130,128.31,79.06,128.35,74.4c0-.23,0-.45,0-.67l-1-9.35s-2.83,9.54-7.22,15.09c1.59-5,2.61-11.09-1.57-21.86-.21,7.49-4.4,16.62-4.4,16.62,1.26-7.7-3.14-10.77-5.34-16.62,0,1.54-.31,7.69-4.39,11.08.31-1.54.42-4.93-1.26-7.08-1.36,2.87-12,9.24-12,9.24a15.22,15.22,0,0,0-.21-5.24c-1.26,2.16-8.16,9.85-8.16,9.85s2.9-11.08,1.65-14.78c.07,2.78-2,8.86-6.68,15.09a30.88,30.88,0,0,0,.63-16.32S74.27,69.23,71.92,71c0,0,0-12.16-2.28-14.86-1.33,5.08-3.3,16-2.59,17.94-3.14-2.23-10.41-10.21-10.12-15.86-2,4.62-3,9-1.89,11.47-2.67-2.23-7.53-7.47-7.06-10.85a13.79,13.79,0,0,0-1,9.77c-3-3.69-6.44-6.77-6.67-10.39-1,4.62-1.18,11.39-.63,12.86-2.59-2.31-7.61-8-7.38-14-1.88,4.08-4.89,8.64-1.41,17.85-3.53-4.54-7.06-7.08-8.63-12.46C21.16,64.81,19.87,70.91,19.41,73.18Z"/><path class="cls-2" d="M73.88,126.74c-4.31-2.16-14.61,5-17,6.75a.51.51,0,0,0,0,.8c1.32,1.19,5.27,4.58,8.79,5.91a7.2,7.2,0,0,0,4.14.14,9,9,0,0,1,3.76.12,3.71,3.71,0,0,0,1.69,0,9,9,0,0,1,3.76-.12,7.24,7.24,0,0,0,4.15-.14c3.51-1.33,7.46-4.72,8.78-5.91a.51.51,0,0,0,0-.8c-2.4-1.74-12.71-8.91-17-6.75A1.06,1.06,0,0,1,73.88,126.74Z"/><path class="cls-3" d="M63.11,107.16s-5.63,9.92,3.37,9.92a1.1,1.1,0,0,0,1.13-1.1c0-1.1-2.25-1.1-1.13-2.2s5.63,1.1,5.63,4.41"/><path class="cls-4" d="M86.12,107.16s5.62,9.92-3.38,9.92a1.09,1.09,0,0,1-1.12-1.1c0-1.1,2.25-1.1,1.12-2.2s-5.62,1.1-5.62,4.41"/><path class="cls-5" d="M87.44,88.25c3.17-3.45,13.75-13.14,26.41-4.88a1.08,1.08,0,0,1,0,1.75l-7.25,4.26c-3.8,1.47-8.08-1.48-18.75-.18A.56.56,0,0,1,87.44,88.25Z"/><circle class="cls-6" cx="101.41" cy="84.79" r="4.81"/><circle cx="101.41" cy="84.79" r="1.51"/><path class="cls-7" d="M87.44,88.25c3.17-3.45,13.75-13.14,26.41-4.88a1.08,1.08,0,0,1,0,1.75l-7.25,4.26c-3.8,1.47-8.08-1.48-18.75-.18A.56.56,0,0,1,87.44,88.25Z"/><path class="cls-5" d="M60.14,88.25C57,84.8,46.39,75.11,33.74,83.37a1.08,1.08,0,0,0,0,1.75L41,89.38c3.81,1.47,8.09-1.48,18.76-.18A.56.56,0,0,0,60.14,88.25Z"/><circle class="cls-8" cx="46.58" cy="84.79" r="4.81"/><circle cx="46.58" cy="84.79" r="1.51"/><path class="cls-9" d="M60.14,88.25C57,84.8,46.39,75.11,33.74,83.37a1.08,1.08,0,0,0,0,1.75L41,89.38c3.81,1.47,8.09-1.48,18.76-.18A.56.56,0,0,0,60.14,88.25Z"/><path class="cls-10" d="M44.68,151a.22.22,0,0,1-.08.38c-1.18.3-4.62,1.2-7.37,2.1-3.37,1.11-6.75-1.1-9,0a21.19,21.19,0,0,0-4.5,3.31S-17.89,118.19,9.11,36.55C24.86-4.27,73.23.14,73.23.14s47.14-4.41,62.89,36.41c27,81.64-14.63,120.25-14.63,120.25a21.19,21.19,0,0,0-4.5-3.31c-2.25-1.1-5.62,1.11-9,0-2.3-.75-4-1.42-4.86-1.77a.39.39,0,0,1-.1-.68c1.89-1.55,3.94-3.33,6.19-5.27C127.47,130,128.31,79.09,128.35,74.4c0-.22,0-.45,0-.67l-1-9.35s-2.83,9.54-7.22,15.09c1.59-5,2.61-11.09-1.57-21.86-.21,7.49-4.4,16.62-4.4,16.62,1.26-7.7-3.14-10.77-5.34-16.62,0,1.54-.31,7.69-4.39,11.08.31-1.54.42-4.93-1.26-7.08-1.36,2.87-12,9.24-12,9.24a15.22,15.22,0,0,0-.21-5.24c-1.26,2.16-8.16,9.85-8.16,9.85s2.9-11.08,1.65-14.78c.07,2.78-2,8.86-6.68,15.09a30.88,30.88,0,0,0,.63-16.32S74.27,69.23,71.92,71c0,0,0-12.16-2.28-14.86-1.33,5.08-3.3,16-2.59,17.94-3.14-2.23-10.41-10.21-10.12-15.86-2,4.62-3,9-1.89,11.47-2.67-2.23-7.53-7.47-7.06-10.85a13.79,13.79,0,0,0-1,9.77c-3-3.69-6.44-6.77-6.67-10.39-1,4.62-1.18,11.39-.63,12.86-2.59-2.31-7.61-8-7.38-14-1.88,4.08-4.89,8.64-1.41,17.85-3.53-4.54-7.06-7.08-8.63-12.46-1.08,2.36-2.38,8.47-2.84,10.73A8.73,8.73,0,0,0,19.24,75c.1,7.16,1.43,55.51,19.12,70.82C40.61,147.72,42.76,149.46,44.68,151Z"/></g></g></g></svg>