<svg xmlns="http://www.w3.org/2000/svg" xmlns:xlink="http://www.w3.org/1999/xlink" viewBox="0 0 163.49 210.96"><defs><style>.cls-1{fill:url(#linear-gradient);}.cls-2{fill:url(#linear-gradient-2);}.cls-11,.cls-12,.cls-14,.cls-15,.cls-3,.cls-4,.cls-5,.cls-6{fill:none;stroke-linecap:round;stroke-miterlimit:10;}.cls-3{stroke:url(#linear-gradient-3);}.cls-4{stroke:url(#linear-gradient-4);}.cls-5{stroke:url(#linear-gradient-5);}.cls-6{stroke:url(#linear-gradient-6);}.cls-7{fill:url(#linear-gradient-7);}.cls-8{fill:#fff;}.cls-9{fill:url(#radial-gradient);}.cls-10{fill:#001a18;}.cls-11{stroke:url(#linear-gradient-8);}.cls-12{stroke:url(#linear-gradient-9);}.cls-13{fill:url(#radial-gradient-2);}.cls-14{stroke:url(#linear-gradient-10);}.cls-15{stroke:url(#linear-gradient-11);}</style><linearGradient id="linear-gradient" x1="81.74" y1="210.96" x2="81.74" gradientUnits="userSpaceOnUse"><stop offset="0" stop-color="#fffc3d"/><stop offset="1" stop-color="#ffc18e"/></linearGradient><linearGradient id="linear-gradient-2" x1="40.3" y1="90.71" x2="125.24" y2="90.71" gradientUnits="userSpaceOnUse"><stop offset="0" stop-color="#f8f8db"/><stop offset="0.75" stop-color="#ccb783"/><stop offset="0.79" stop-color="#d0bd8b"/><stop offset="0.86" stop-color="#dccea2"/><stop offset="0.94" stop-color="#eeeac6"/><stop offset="1" stop-color="#fdffe2"/></linearGradient><linearGradient id="linear-gradient-3" x1="72.61" y1="113.78" x2="72.61" y2="104.98" gradientUnits="userSpaceOnUse"><stop offset="0" stop-color="#c69c6d"/><stop offset="1" stop-color="#e9967a"/></linearGradient><linearGradient id="linear-gradient-4" x1="76.75" y1="114.72" x2="76.75" y2="111.46" xlink:href="#linear-gradient-3"/><linearGradient id="linear-gradient-5" x1="90.54" y1="113.78" x2="90.54" y2="104.98" xlink:href="#linear-gradient-3"/><linearGradient id="linear-gradient-6" x1="86.4" y1="114.72" x2="86.4" y2="111.46" xlink:href="#linear-gradient-3"/><linearGradient id="linear-gradient-7" x1="82.18" y1="142.42" x2="82.18" y2="123.47" gradientUnits="userSpaceOnUse"><stop offset="0" stop-color="#ff79ea"/><stop offset="1" stop-color="#ff4074"/></linearGradient><radialGradient id="radial-gradient" cx="103.4" cy="82.31" r="3" gradientUnits="userSpaceOnUse"><stop offset="0" stop-color="#58dcff"/><stop offset="0.84" stop-color="#4545ff"/></radialGradient><linearGradient id="linear-gradient-8" x1="92.31" y1="82.24" x2="113.98" y2="82.24" gradientUnits="userSpaceOnUse"><stop offset="0" stop-color="#969696"/><stop offset="1" stop-color="#242728"/></linearGradient><linearGradient id="linear-gradient-9" x1="93.71" y1="83.97" x2="112.19" y2="83.97" xlink:href="#linear-gradient-8"/><radialGradient id="radial-gradient-2" cx="57.68" cy="82.31" r="3" xlink:href="#radial-gradient"/><linearGradient id="linear-gradient-10" x1="46.96" y1="82.24" x2="68.63" y2="82.24" gradientUnits="userSpaceOnUse"><stop offset="0" stop-color="#3c3e3f"/><stop offset="1" stop-color="#969696"/></linearGradient><linearGradient id="linear-gradient-11" x1="48.75" y1="83.97" x2="67.23" y2="83.97" xlink:href="#linear-gradient-10"/></defs><title>FaceFour</title><g id="Layer_2" data-name="Layer 2"><g id="Logo_Color_all" data-name="Logo Color all"><g id="FaceFour"><path class="cls-1" d="M116.28,135.66s-3.52,26.93,8.54,37.75,16.75,24.28,16.9,27.56a16.84,16.84,0,0,0,3.75-9.52c2.5,7.34,3.9,14.2,2.34,19.51,6.24-8.27,8.43-13.11,8.27-18.73,2.18,8.12,4.52,13,3.9,15.45,4.37-9.83,5.93-31.36-3-52.74S145.47,110,146.72,93.47s-8-99.24-64-93.15c-5.78-.31-59-6.24-64,83.21-2.08,29.55-2.49,61.58-5.82,67.41S0,173.41,0,182.14c5-4.16,9.57-7.9,13.31-9.15-3.74,10,2.08,13.73-2.91,18.72,7.91-3.74,15.4-6.65,17.06-15.81,0,10.82-3.33,25.38-7.07,29.54C35,198,64.54,168.3,55.8,145.83h0a38,38,0,0,1-2.75-2.8C37.86,123.48,39.73,80,41.4,66.68c5-43.06,37.13-42,37.13-42,32.15-.42,41.09,51.59,46.71,66.78-.17,15.85-1.62,32.56-9,44.22"/><path class="cls-2" d="M78.53,24.66s-32.14-1-37.13,42C39.73,80,37.86,123.48,53.05,143c6.24,7.08,17.27,13.32,23.51,13.52s9.36.21,10.82.21,6,.21,23.5-14.56C123,131,125,110.58,125.24,91.44,119.62,76.25,110.68,24.24,78.53,24.66Z"/><path class="cls-3" d="M74.34,105.48s-5.81,1.25-2.35,7.8"/><path class="cls-4" d="M78.42,114.22s-2.6-4.53-3.34-.78"/><path class="cls-5" d="M88.81,105.48s5.82,1.25,2.35,7.8"/><path class="cls-6" d="M84.73,114.22s2.6-4.53,3.34-.78"/><path class="cls-7" d="M97.26,127.79c-1.25.16-8.43-3.58-10.46-4.21-1.52-.47-4.44.64-5.81,1.23a1.18,1.18,0,0,1-1.16-.15,8,8,0,0,0-5.2-.92c-1.87.47-6.86,3.9-8.89,5.15s-.62,3-.16,3.43a55.36,55.36,0,0,1,6.56,5.93A13.17,13.17,0,0,0,82,142.41c4.78-.21,8.11-2,10-3.85s6.56-6.24,7.49-7.49S98.51,127.64,97.26,127.79Zm-.82,2.87a26.1,26.1,0,0,1-5.89,1.66c-1.72,0-5.43,1.33-6.83,1.48a10,10,0,0,1-3.74,0c-1.25-.31-4.57-1.37-6-1.37s-6.14-2-5.36-2a15.33,15.33,0,0,0,4.58-1.25c.62-.47,5.11-.59,5.89-.43a12.34,12.34,0,0,0,4.09-.2c1.1-.31,5.93,0,7.65.94,1.21.66,4,.78,5.51.79A.19.19,0,0,1,96.44,130.66Z"/><path class="cls-8" d="M94.39,83.63s9.21-8.28,17.21-1.39c-1.86,1.86-2.23,3.25-4.93,3.44S94.39,83.63,94.39,83.63Z"/><circle class="cls-9" cx="103.4" cy="82.31" r="3"/><circle class="cls-10" cx="103.4" cy="82.31" r="0.77"/><path class="cls-11" d="M92.81,85s4.28-4.81,8.93-5.38c1.91-.23,5.42-1.17,11.74,3.59"/><path class="cls-12" d="M111.69,82.31s-2,3-4.84,3.28S95.93,83.79,94.21,84"/><path class="cls-8" d="M66.39,83.63s-9.21-8.28-17.21-1.39c1.86,1.86,2.24,3.25,4.93,3.44S66.39,83.63,66.39,83.63Z"/><circle class="cls-13" cx="57.68" cy="82.31" r="3"/><circle class="cls-10" cx="57.68" cy="82.31" r="0.77"/><path class="cls-14" d="M68.13,85s-4.28-4.81-8.93-5.38c-1.91-.23-5.42-1.17-11.74,3.59"/><path class="cls-15" d="M49.25,82.31s2,3,4.84,3.28S65,83.79,66.73,84"/></g></g></g></svg>